<?xml version="1.0"?>
<svg width="640" height="480" xmlns="http://www.w3.org/2000/svg" xmlns:svg="http://www.w3.org/2000/svg" xmlns:xlink="http://www.w3.org/1999/xlink">
 <!-- Created with SVG-edit - http://svg-edit.googlecode.com/ -->
 <defs>
  <symbol id="svg_1" viewBox="0 0 1000 1000" y="0px" x="0px" xmlns:xlink="http://www.w3.org/1999/xlink" xmlns="http://www.w3.org/2000/svg">
   <metadata>Svg Vector Icons : http://www.onlinewebfonts.com/icon</metadata>
   <g>
    <g transform="translate(0.000000,511.000000) scale(0.100000,-0.100000)">
     <path d="m4564.8,4996.9c-2224.9,-209 -4021.1,-1863.5 -4403.7,-4056.5c-81.5,-467.6 -81.5,-1197.4 0,-1665.1c333,-1927.3 1785.6,-3475.5 3684.5,-3936.1c1392.3,-333 2898,-31.9 4056.5,811.3c279.9,205.5 790,712.1 1006.2,999.1c1027.4,1364 1275.4,3153.1 655.4,4747.3c-609.4,1573 -2076.1,2774 -3716.4,3039.7c-446.4,74.5 -907,95.7 -1282.5,60.3zm432.2,-1877.7l0,-460.6l-184.2,0c-612.9,-3.5 -1367.5,-393.3 -1810.4,-938.8c-209,-258.6 -428.7,-701.5 -499.5,-1009.7c-74.4,-304.7 -70.9,-907 0,-1201c212.6,-864.4 839.6,-1541.1 1693.5,-1835.1c262.2,-92.1 329.5,-99.2 800.7,-99.2c460.6,3.5 542,14.2 797.1,99.2c400.3,134.6 701.5,322.4 1009.7,627.1c364.9,364.9 602.3,839.6 602.3,1211.6l0,134.6l-644.8,7.1l-641.3,10.6l839.6,999.1l839.6,1002.6l570.4,-648.3c315.3,-354.3 715.6,-804.2 889.2,-999.1l311.9,-354.3l-634.1,-10.6l-637.7,-7.1l-24.9,-276.3c-120.5,-1296.7 -935.3,-2235.5 -2235.5,-2582.7c-311.8,-81.5 -418.1,-92.1 -970.7,-95.7c-577.5,0 -641.3,7.1 -935.3,95.7c-1686.4,520.8 -2717.3,2026.4 -2536.7,3698.6c116.9,1094.7 620,1962.7 1456.1,2522.5c520.8,350.7 1158.5,563.3 1707.6,566.8l237.4,3.5l0,-460.5z"/>
    </g>
   </g>
  </symbol>
  <symbol id="svg_4" viewBox="0 0 1000 1000" y="0px" x="0px" xmlns:xlink="http://www.w3.org/1999/xlink" xmlns="http://www.w3.org/2000/svg">
   <metadata>Svg Vector Icons : http://www.onlinewebfonts.com/icon</metadata>
   <g>
    <g transform="matrix(1 0 0 -1 0 1952)">
     <path d="m843,1184.5c0,0 14.3,30.6 -63.3,104.1c-77.6,73.5 -67.4,263.4 -67.4,392c0,128.6 -194,131.4 -194,131.4l-36.8,0c0,0 -194,-2.7 -194,-131.4c0,-128.6 10.2,-318.5 -67.4,-392c-77.6,-73.5 -63.3,-104.1 -63.3,-104.1l0,-30.6c0,0 -4.1,-28.6 36.7,-28.6l612.5,0c40.8,0 36.8,28.6 36.8,28.6l0.2,30.6l0,0zm-359.3,-90.5c-18,0 -32.7,-14.6 -32.7,-32.7l0,-66.7c0,-18 14.6,-32.7 32.7,-32.7c18,0 32.7,14.6 32.7,32.7l0,66.7c-0.1,18.1 -14.7,32.7 -32.7,32.7l0,0zm15.6,749.3c27.2,0 49.3,22.1 49.3,49.3s-22.1,49.3 -49.3,49.3c-27.3,0 -49.3,-22.1 -49.3,-49.3c0,-27.2 22.1,-49.3 49.3,-49.3l0,0z"/>
    </g>
   </g>
  </symbol>
 </defs>
 <g>
  <title>Layer 1</title>
  <g id="svg_3"/>
  <use x="-43.939351" y="30.601143" fill="#3f51b5" transform="matrix(1.0468975712068118,0,0,0.9149985153288496,-104.26466389976288,0.26413330290032977) " xlink:href="#svg_4" id="svg_5"/>
  <g id="svg_6"/>
  <circle stroke="#ffffff" id="svg_7" r="94.436587" cy="335.500001" cx="288.999982" stroke-width="5" fill="#ffffff"/>
  <use fill="#3f51b5" x="-418.112572" y="178.756118" transform="matrix(0.38295963359670077,0,0,0.35510081914863245,333.4844544762726,185.87305431116965) " xlink:href="#svg_1" id="svg_2"/>
 </g>
</svg>